<?xml version="1.0" encoding="iso-8859-1"?>
<svg fill="#000000" height="800px" width="800px" version="1.1" id="Capa_1" xmlns="http://www.w3.org/2000/svg" xmlns:xlink="http://www.w3.org/1999/xlink"
	 viewBox="0 0 54.839 54.839" xml:space="preserve">
<path d="M54.516,14.708c-1.848-2.842-4.015-5.514-6.441-7.941c-2.426-2.426-5.097-4.593-7.941-6.441
	c-0.792-0.516-1.836-0.406-2.504,0.263l-4.032,4.033c-2.213,2.212-3.431,5.164-3.431,8.312c0,0.771,0.075,1.53,0.218,2.27
	c-0.74-0.143-1.499-0.218-2.271-0.218c-2.48,0-4.832,0.767-6.825,2.192l-0.854-0.854c-2.125-2.125-4.959-3.295-7.981-3.295
	s-5.856,1.17-7.981,3.295l-1.172,1.172C-1.1,21.896-1.1,29.056,3.3,33.457l2.144,2.145c0.375,0.375,0.884,0.586,1.415,0.586
	c0.53,0,1.039-0.211,1.414-0.586l14.306-14.306c0.017-0.017,0.029-0.038,0.046-0.056l0.005,0.005c1.457-1.457,3.404-2.26,5.483-2.26
	c2.079,0,4.026,0.803,5.483,2.26c3.023,3.023,3.023,7.943,0,10.967l-0.051,0.051L19.24,46.569c-0.781,0.781-0.781,2.047,0,2.828
	l2.145,2.145c2.125,2.125,4.959,3.295,7.981,3.295s5.856-1.17,7.981-3.295l1.172-1.172c4.401-4.401,4.401-11.561,0-15.962
	l-0.852-0.852c1.917-2.68,2.583-5.985,1.975-9.097c0.739,0.143,1.497,0.218,2.267,0.218c3.147,0,6.099-1.219,8.312-3.431
	l4.033-4.033C54.921,16.544,55.031,15.5,54.516,14.708z M6.859,31.359l-0.73-0.73c-2.841-2.841-2.841-7.464,0-10.306l1.172-1.172
	c1.369-1.369,3.199-2.123,5.153-2.123s3.784,0.754,5.153,2.124l0.73,0.729L6.859,31.359z M35.69,47.541l-1.172,1.172
	c-1.369,1.369-3.199,2.123-5.153,2.123s-3.784-0.754-5.152-2.123l-0.73-0.73L34.96,36.505l0.73,0.73
	C38.531,40.076,38.531,44.699,35.69,47.541z M47.392,18.417c-1.457,1.457-3.405,2.259-5.483,2.259c-2.079,0-4.026-0.803-5.483-2.259
	c-1.457-1.458-2.259-3.405-2.259-5.483c0-2.079,0.802-4.026,2.259-5.483l2.865-2.865c2.113,1.486,4.111,3.167,5.955,5.011
	c1.845,1.845,3.526,3.843,5.012,5.956L47.392,18.417z"/>
</svg>
